<svg width="26" height="25" viewBox="0 0 26 25" fill="none" xmlns="http://www.w3.org/2000/svg">
<path d="M16.3227 13.6192C18.6249 12.4852 20.2053 10.1752 20.2053 7.51418C20.2053 3.73418 17.0164 0.65918 13.0964 0.65918C9.17645 0.65918 5.98756 3.73418 5.98756 7.51418C5.98756 10.1752 7.568 12.4852 9.87333 13.6192C2.21067 15.5332 0.826223 24.0142 0.810667 24.1102L2.42222 24.3412C2.48133 23.9512 3.99956 14.8072 13.1027 14.8072C22.1933 14.8072 23.5187 23.9362 23.5716 24.3262L25.1893 24.1282C25.1769 24.0292 23.9604 15.5332 16.3227 13.6192ZM7.62089 7.51418C7.62089 4.60118 10.0787 2.23118 13.0996 2.23118C16.1204 2.23118 18.5782 4.60118 18.5782 7.51418C18.5782 10.4272 16.1204 12.7972 13.0996 12.7972C10.0787 12.7972 7.62089 10.4272 7.62089 7.51418Z" fill="#333333"/>
</svg>
