<svg width="25" height="24" viewBox="0 0 25 24" fill="none" xmlns="http://www.w3.org/2000/svg">
<path d="M4.06051 6.54538L3.26433 6.18175L3.02548 5.45447L2.38853 5.23629L5.8121 2.47266L5.97134 3.05447L6.6879 3.41811L7.00637 4.14538L7.64331 4.36357L4.21974 7.1272L4.06051 6.54538Z" fill="none" stroke="#1D1D1B" stroke-miterlimit="10"/>
<path d="M4.14013 7.34528C4.06051 7.27255 4.06051 7.27255 3.98089 7.19982L3.82166 6.618L3.18471 6.3271L3.1051 6.25437L2.86624 5.59982L2.30892 5.38164C2.2293 5.38164 2.14968 5.30891 2.14968 5.23619C2.14968 5.16346 2.14968 5.09073 2.2293 5.018L5.65287 2.25437C5.73248 2.18164 5.8121 2.18164 5.89172 2.18164C5.97134 2.18164 6.05095 2.25437 6.05095 2.3271L6.21019 2.90891L6.84713 3.19982C6.92675 3.19982 6.92675 3.27255 6.92675 3.27255L7.1656 3.9271L7.72293 4.14528C7.80255 4.14528 7.88216 4.218 7.88216 4.29073C7.88216 4.36346 7.88217 4.43619 7.80255 4.50891L4.37898 7.27255C4.29936 7.34528 4.21974 7.34528 4.14013 7.34528ZM6.92675 4.29073C6.84713 4.29073 6.84713 4.218 6.76752 4.14528L6.52866 3.56346L5.89172 3.19982C5.8121 3.19982 5.8121 3.1271 5.8121 3.05437L5.65287 2.83619L2.78662 5.16346L3.1051 5.23619C3.1051 5.23619 3.18471 5.30891 3.18471 5.38164L3.42357 6.03619L4.06051 6.3271C4.14013 6.3271 4.14013 6.39982 4.14013 6.47255L4.21974 6.76346L7.08599 4.43619L6.92675 4.29073Z" fill="#231F20" stroke="#1D1D1B" stroke-miterlimit="10"/>
<path d="M18.7898 17.9637L19.3471 19.6364L18.0732 19.1273L17.1178 18.7637L18.6306 17.5273L18.7898 17.9637Z" fill="none" stroke="#1D1D1B" stroke-width="0.7" stroke-miterlimit="10"/>
<path d="M19.5064 19.7818C19.4268 19.8545 19.3471 19.8545 19.2675 19.7818L17.0382 18.9091C16.9586 18.9091 16.879 18.8363 16.879 18.7636C16.879 18.6909 16.879 18.6181 16.9586 18.5454L18.551 17.3091C18.6306 17.2363 18.7102 17.2363 18.7898 17.2363C18.8694 17.2363 18.949 17.3091 18.949 17.3818L19.586 19.5636C19.586 19.7091 19.5064 19.7818 19.5064 19.7818ZM17.5159 18.6909L18.949 19.2727L18.551 17.8909L17.5159 18.6909Z" fill="#231F20" stroke="#1D1D1B" stroke-width="0.7" stroke-miterlimit="10"/>
<path d="M2.30892 5.2361L0.955414 3.78155C0.477707 3.27246 0.557325 2.47246 1.11465 2.0361L2.54777 0.872462C3.1051 0.436098 3.98089 0.508826 4.4586 1.01792L5.8121 2.47246H5.73248L2.30892 5.2361Z" fill="none" stroke="#1D1D1B" stroke-miterlimit="10"/>
<path d="M2.14968 5.38171L0.796177 3.92716C0.238853 3.34535 0.238853 2.39989 0.955413 1.8908L2.38853 0.727164C3.02548 0.218073 4.06051 0.290801 4.61783 0.872619L5.97134 2.32716C6.05095 2.39989 6.05095 2.54535 5.97134 2.61807L2.46815 5.38171C2.38853 5.45444 2.2293 5.45444 2.14968 5.38171ZM4.29936 1.0908C3.90127 0.654437 3.18471 0.654437 2.70701 1.01807L1.27388 2.18171C0.796177 2.54535 0.71656 3.19989 1.11465 3.63626L2.38853 4.94535L5.57325 2.39989L4.29936 1.0908Z" fill="#231F20" stroke="#1D1D1B" stroke-miterlimit="10"/>
<path d="M17.914 14.9819L18.6306 17.5274L17.1178 18.7638L14.4904 17.7456L17.914 14.9819Z" fill="none" stroke="#1D1D1B" stroke-miterlimit="10"/>
<path d="M16.9586 18.9819L14.3312 17.9637C14.2516 17.9637 14.172 17.8909 14.172 17.8182C14.172 17.7455 14.172 17.6728 14.2516 17.6L17.6752 14.8364C17.7548 14.7637 17.8344 14.7637 17.914 14.7637C17.9936 14.7637 18.0732 14.8364 18.0732 14.9091L18.8694 17.3819C18.8694 17.4546 18.8694 17.5273 18.7898 17.6L17.1975 18.8364C17.1975 18.9819 17.1178 18.9819 16.9586 18.9819ZM17.7548 15.4182L14.8885 17.7455L17.0382 18.6182L18.3917 17.5273L17.7548 15.4182Z" fill="#231F20" stroke="#1D1D1B" stroke-miterlimit="10"/>
<path d="M14.4904 17.7456L4.21974 7.12741L7.64331 4.36377L17.914 14.982L14.4904 17.7456Z" fill="none" stroke="#1D1D1B" stroke-miterlimit="10"/>
<path d="M14.3312 17.8908L4.06051 7.27267C3.98089 7.19994 3.98089 7.05448 4.06051 6.98176L7.48408 4.21812C7.56369 4.14539 7.72293 4.14539 7.80255 4.21812L18.0732 14.8363C18.1529 14.909 18.1529 15.0545 18.0732 15.1272L14.6497 17.8908C14.4904 17.9636 14.4108 17.9636 14.3312 17.8908ZM7.64331 4.65448L4.53822 7.12721L14.4904 17.4545L17.5955 14.9818L7.64331 4.65448Z" fill="#231F20" stroke="#1D1D1B" stroke-miterlimit="10"/>
<path d="M10.0318 2.76367H21.9745C23.2484 2.76367 24.2038 3.70913 24.2038 4.80004V21.2364C24.2038 22.4 23.1688 23.2728 21.9745 23.2728H3.98089C2.707 23.2728 1.75159 22.3273 1.75159 21.2364V8.4364" stroke="#1D1D1B" stroke-width="1.5" stroke-miterlimit="10"/>
</svg>
