<svg width="23" height="25" viewBox="0 0 23 25" fill="none" xmlns="http://www.w3.org/2000/svg">
<path d="M22.1887 8.73216C21.6011 8.09761 20.7598 7.73456 19.8865 7.73456H18.8333V2.68342C18.8333 1.20596 17.6773 0 16.2517 0H6.75055C5.3249 0 4.16896 1.2028 4.16896 2.68342V7.73141H3.11578C2.23919 7.73141 1.40114 8.09446 0.813543 8.72901C0.222732 9.36356 -0.0694625 10.2191 0.0140216 11.0746L1.05757 22.2187C1.20528 23.8035 2.54102 25 4.15933 25H18.8397C20.4612 25 21.7937 23.8035 21.9414 22.2187L22.985 11.0746C23.0717 10.2222 22.7795 9.36671 22.1887 8.73216ZM5.85149 2.68342C5.85149 2.11517 6.25607 1.65425 6.75055 1.65425H16.2517C16.7462 1.65425 17.1507 2.11517 17.1507 2.68342V7.73141H5.84828V2.68342H5.85149ZM20.2686 22.0672C20.2011 22.7964 19.5878 23.3489 18.8429 23.3489H4.16254C3.41761 23.3489 2.80432 22.7996 2.73689 22.0703L1.69334 10.9263C1.65481 10.5285 1.78645 10.1433 2.06259 9.84657C2.33552 9.54982 2.71441 9.38566 3.1222 9.38566H19.8929C20.3007 9.38566 20.6763 9.54982 20.9525 9.84657C21.2286 10.1433 21.3603 10.5253 21.3217 10.9263L20.2686 22.0672Z" fill="#333333"/>
</svg>
